<?xml version="1.0" standalone="no"?><!DOCTYPE svg PUBLIC "-//W3C//DTD SVG 1.1//EN" "http://www.w3.org/Graphics/SVG/1.1/DTD/svg11.dtd"><svg t="1493002108600" class="icon" style="" viewBox="0 0 1024 1024" version="1.1" xmlns="http://www.w3.org/2000/svg" p-id="3811" xmlns:xlink="http://www.w3.org/1999/xlink" width="150" height="150"><defs><style type="text/css"></style></defs><path d="M738.5088 1023.83616H285.4912c-66.68288 0-120.75008-57.30304-120.75008-127.95904V128.12288c0-70.69696 54.0672-127.95904 120.79104-127.95904h452.93568c66.7648 0 120.832 57.26208 120.832 127.95904v767.75424c0 70.656-54.0672 127.95904-120.832 127.95904z m60.37504-895.71328c0-35.34848-27.0336-63.97952-60.416-63.97952H285.53216c-33.3824 0-60.416 28.672-60.416 63.97952v31.9488h573.76768v-31.9488z m0 95.96928H225.11616v511.83616h573.76768V224.09216z m0 575.81568H225.11616v95.96928c0 35.34848 27.0336 63.97952 60.416 63.97952h452.93568c33.3824 0 60.416-28.672 60.416-63.97952V799.9488zM512 927.86688c-24.9856 0-45.30176-21.504-45.30176-47.96416 0-26.50112 20.2752-48.00512 45.30176-48.00512 24.9856 0 45.30176 21.504 45.30176 48.00512 0 26.50112-20.2752 47.96416-45.30176 47.96416z" p-id="3812" fill="#707070"></path></svg>