<?xml version="1.0" standalone="no"?><!DOCTYPE svg PUBLIC "-//W3C//DTD SVG 1.1//EN" "http://www.w3.org/Graphics/SVG/1.1/DTD/svg11.dtd"><svg t="1495888137872" class="icon" style="" viewBox="0 0 1024 1024" version="1.1" xmlns="http://www.w3.org/2000/svg" p-id="27379" xmlns:xlink="http://www.w3.org/1999/xlink" width="200" height="200"><defs><style type="text/css"></style></defs><path d="M159.44799 863.454514l15.089673-413.583526 133.50769 0.459464 0.608867 0.070608c0.704035 0.045025 5.672186 0.286526 13.183254-0.751107l21.717627-3.000334-16.986883 416.191934L159.44799 863.454514zM209.878566 486.652705l-12.405541 340.003717 93.89653-0.341784 13.849426-339.333452L209.878566 486.652705z" p-id="27380" fill="#707070"></path><path d="M289.872458 862.977653l16.784268-411.228899 15.178701-2.097778c16.506952-2.28095 41.36306-9.94142 66.037019-33.475416 31.80845-30.340005 54.280254-78.30339 66.791196-142.55474 1.082658-5.561669 2.000564-13.33982 2.971681-21.576411 3.876284-32.861432 7.664563-57.108672 21.181415-69.854974 14.371312-13.552667 36.939307-21.643949 60.371996-21.643949 32.244378 0 60.600193 15.181771 77.79583 41.654702 16.232706 24.986067 22.508643 58.97109 18.652825 101.008508-3.719718 40.552601-16.983813 88.805582-39.483246 143.723356l203.995067 0 0.788969 0.067538c3.258207 0.282433 32.353872 3.471055 50.459229 28.359908 13.08911 17.993816 16.430204 41.61991 9.933233 70.227458-2.413979 13.967106-37.011962 211.81415-69.541843 274.323832-9.597589 18.445094-33.166377 39.022759-70.533426 41.457204l-1.124614 0.037862L289.872458 862.977653zM342.072331 482.954477 328.064292 826.179562l391.338896-1.429559c21.853727-1.578961 34.915207-12.246929 39.865963-21.760606 30.396287-58.412364 65.665559-262.065647 66.019623-264.11533l0.202615-1.014096c4.160763-18.031679 2.904143-31.804357-3.739161-40.937364-7.562233-10.395768-20.767999-12.919241-23.478737-13.332656L540.169061 483.58995l11.469216-25.77913c66.372663-149.20623 50.170656-211.679074 34.605146-235.639788-14.112416-21.722744-35.539424-24.965601-47.054689-24.965601-13.843286 0-27.624151 4.546549-35.150568 11.588943-0.298805 0.363274-2.796696 3.681856-5.383614 15.968693-2.02103 9.597589-3.339048 20.772093-4.613064 31.577183-1.054005 8.93858-2.049682 17.379832-3.39533 24.289196C461.454302 430.55506 385.651872 471.780996 342.072331 482.954477z" p-id="27381" fill="#707070"></path></svg>