<?xml version="1.0" standalone="no"?><!DOCTYPE svg PUBLIC "-//W3C//DTD SVG 1.1//EN" "http://www.w3.org/Graphics/SVG/1.1/DTD/svg11.dtd"><svg t="1495887815112" class="icon" style="" viewBox="0 0 1024 1024" version="1.1" xmlns="http://www.w3.org/2000/svg" p-id="23207" xmlns:xlink="http://www.w3.org/1999/xlink" width="200" height="200"><defs><style type="text/css"></style></defs><path d="M368.904943 958.148116h288.237986l-117.240673 59.900256c-18.430848 7.935504-39.165552 7.935504-57.5964 0l-113.400913-59.900256zM736.753953 374.504593c-11.263296 0-18.942816-10.23936-18.942816-19.1988 0-49.91688-18.430848-92.410224-54.780576-126.200112-35.83776-33.27792-75.259296-50.428848-116.984689-50.428848-11.263296 0-18.942816-7.67952-18.942816-19.1988s7.67952-19.1988 18.942816-19.1988c55.548528 0 103.417536 19.1988 146.422849 58.620336 42.749328 39.165552 63.484032 90.106368 63.484032 156.15024-0.255984 9.215424-7.935504 19.454784-19.1988 19.454784zM641.271921 914.374852H384.775952c-10.495344 0-19.1988-8.703456-19.198801-19.198801s8.703456-19.1988 19.198801-19.1988h256.495969c10.495344 0 19.1988 8.703456 19.1988 19.1988s-8.703456 19.1988-19.1988 19.198801zM641.271921 822.988563H384.775952c-10.495344 0-19.1988-8.703456-19.198801-19.1988s8.703456-19.1988 19.198801-19.1988h256.495969c10.495344 0 19.1988 8.703456 19.1988 19.1988s-8.703456 19.1988-19.1988 19.1988z" fill="#707070" p-id="23208"></path><path d="M512 38.3976c88.570464 0 171.765265 34.55784 234.225361 97.017937 62.460096 62.460096 97.017936 145.654897 97.017936 234.22536 0 100.601712-57.340416 210.930817-139.51128 268.271233-23.806512 16.63896-34.55784 34.813824-43.005312 49.404913-1.023936 1.791888-2.047872 3.327792-3.071808 5.11968-0.767952 1.023936-1.27992 2.303856-2.047872 3.327792-0.511968 1.023936-1.27992 2.303856-2.047872 3.327792-1.023936 0.255984-2.55984 0.511968-5.11968 0.511968H375.560527c-2.55984 0-4.095744-0.255984-5.11968-0.511968-0.511968-1.023936-1.27992-2.303856-2.047872-3.327792-0.767952-1.27992-1.27992-2.303856-2.047872-3.327792-1.023936-1.791888-2.047872-3.327792-3.071808-5.11968-8.703456-14.591088-19.454784-32.765952-43.005312-49.404913-82.170864-57.340416-139.511281-167.669521-139.51128-268.271233 0-88.570464 34.55784-171.765265 97.017936-234.22536C340.234735 72.95544 423.429536 38.3976 512 38.3976m0-38.3976C307.724767 0 142.359103 165.621649 142.359103 369.640897c0 114.936816 65.019936 236.273233 155.894256 299.757266 19.1988 13.567152 26.622336 28.414224 35.325792 42.749328 5.887632 9.727392 12.287232 25.5984 41.981376 25.5984h272.878946c29.694144 0 36.093744-15.871008 41.981376-25.5984 8.703456-14.591088 16.126992-29.43816 35.325792-42.749328 90.87432-63.484032 155.894257-184.820449 155.894256-299.757266C881.640897 165.621649 716.275233 0 512 0z" fill="#707070" p-id="23209"></path></svg>