<?xml version="1.0" standalone="no"?><!DOCTYPE svg PUBLIC "-//W3C//DTD SVG 1.1//EN" "http://www.w3.org/Graphics/SVG/1.1/DTD/svg11.dtd"><svg t="1496983235251" class="icon" style="" viewBox="0 0 1040 1024" version="1.1" xmlns="http://www.w3.org/2000/svg" p-id="4183" xmlns:xlink="http://www.w3.org/1999/xlink" width="130" height="128"><defs><style type="text/css"></style></defs><path d="M996.149491 301.942125C891.812314 97.387974 699.174741-15.168957 469.000981 1.652625 266.016431 16.491552 86.524268 143.123263 23.574998 338.83808c-61.204122 190.272845 0.826106 412.474683 139.116236 553.119215 147.501211 150.010508 372.129736 163.785824 557.858998 83.632898C974.536495 865.986591 1115.697344 560.461645 996.149491 301.942125c-8.374649-18.112372-35.068196-2.364728-26.745179 15.634054 123.461529 266.987105-50.237566 557.476924-309.53156 648.78228C429.203328 1047.59565 193.102258 946.686813 85.791099 729.741073c-103.397482-209.046102-57.765456-477.675093 138.889057-613.177115C412.867084-13.103692 692.906663 3.862458 859.191457 161.153024c46.396173 43.886877 81.381759 99.907184 110.212855 156.412829C978.481151 335.389088 1005.205677 319.693076 996.149491 301.942125" p-id="4184" fill="#707070"></path><path d="M212.990758 340.015281c-0.795127-0.30979-1.590254-0.609253-2.385381-0.919043-3.614213-1.383727-8.767049 0.175548-11.296998 2.994634-22.955418 25.485367-17.492793 96.623413-20.570037 129.027418-6.185468 65.221062-8.34367 130.793219-8.312691 196.303418 0.010326 14.97317 23.244555 14.97317 23.234229 0-0.020653-45.90051 1.259812-91.666778 3.862045-137.495003 1.042959-18.360204 24.339146-161.720559 9.293692-167.503301C220.838764 367.803419 226.838358 345.323012 212.990758 340.015281" p-id="4185" fill="#707070"></path><path d="M221.179532 372.057865c0.547295 3.20116 1.104917 6.412647 1.652212 9.613808l-18.246614 2.344076c23.802177 27.695201 32.342047 89.642818 44.134709 124.13274 4.987614 14.601422 11.792662 21.055375 27.044642 21.643975 14.962843 0.5886 27.622917-26.559305 32.899668-35.212765 25.919073-42.534128 51.838146-85.078583 77.757219-127.623038-5.297404 1.383727-10.594808 2.777781-15.892213 4.171835 22.841829 10.543177 14.27098 132.47641 14.787296 155.462807 1.063611 46.943469 0.475011 93.90759-0.753822 140.830406-0.3924 14.993822 22.841829 14.952517 23.234229 0 1.765801-67.090127 1.425033-134.087316-1.022306-201.146464-1.073938-29.584918 9.820334-99.339236-24.514693-115.20047-5.834373-2.695171-12.370936-1.631559-15.892213 4.161509-16.202002 26.579958-32.404005 53.170242-48.606007 79.770852-3.975635 6.526237-45.879857 68.824949-46.644005 66.986863-16.811255-40.716695-21.17929-100.753943-50.103324-134.397106-4.884351-5.679478-14.756317-3.82074-18.246614 2.364728-0.536969 0.960348-1.073938 1.920696-1.621233 2.870718-2.457665 4.368035-2.096244 10.594808 1.817433 14.07478 0.598927 0.526643 1.187527 1.073938 1.786454 1.590254C215.902781 398.410643 232.39392 382.033093 221.179532 372.057865" p-id="4186" fill="#707070"></path><path d="M448.162459 510.162121c-18.731952 40.117768-17.441161 90.159134 19.454794 119.434263 34.892649 27.695201 74.13268 7.579522 95.50817-25.289167 22.273881-34.273069 19.702626-93.09181-16.687339-117.389651-34.882322-23.306513-74.101701-4.905004-86.5759 33.354026-4.657172 14.291632 17.78193 20.363511 22.408123 6.185468 11.080146-33.994258 45.167341-33.188805 63.321018-6.330037 17.513445 25.919073 6.784395 62.27806-11.183409 84.510635-17.699319 21.871154-43.587413 16.57375-61.235101-1.20818-20.59069-20.766237-16.057434-57.724151-4.935983-81.536654C474.53589 508.396319 454.502822 496.593331 448.162459 510.162121" p-id="4187" fill="#707070"></path><path d="M614.34399 477.768443c-3.727803 57.548603-7.465932 115.097207-11.193735 172.656136 2.839739-3.738129 5.689804-7.476259 8.519217-11.204061-0.536969 0.216853-1.073938 0.444032-1.621233 0.650558 4.378361 1.776128 8.746396 3.562582 13.114431 5.349036l-1.022306-2.271791c-1.40438 5.307731-2.788107 10.594808-4.171835 15.892213 1.528296-0.743495 3.046266-1.486991 4.574562-2.240812 13.4552-6.588195 1.662538-26.621263-11.74103-20.053721-1.507643 0.743495-3.046266 1.497317-4.553909 2.240812-6.092531 2.984308-6.639826 10.481219-4.171835 15.902539 0.340769 0.743495 0.681537 1.507643 1.032632 2.251139 1.951675 4.306077 8.715417 7.104511 13.124758 5.338709 0.547295-0.216853 1.084264-0.433706 1.631559-0.650558 5.132183-2.065265 8.168122-5.524583 8.529544-11.204061 3.727803-57.548603 7.465932-115.097207 11.193735-172.656136C638.548893 462.805599 615.304338 462.898536 614.34399 477.768443" p-id="4188" fill="#707070"></path><path d="M623.575724 482.931605c22.294533-3.810414 44.258624-7.280058 65.396609 3.170181 26.528326 13.114431 26.456042 46.4065 8.054533 65.406936-17.234635 17.802582-49.339176 20.601016-70.941845 32.156173-10.037187 5.359362-5.669152 22.232575 5.855026 21.643975 35.822018-1.848412 66.914579 8.725744 94.754348 31.412677 10.212734 8.323017 24.277188-1.848412 18.246614-14.07478-2.199507-4.471298-4.399014-8.93227-6.598521-13.393242-6.6295-13.444874-26.662568-1.662538-20.064047 11.720378 2.209833 4.481625 4.40934 8.93227 6.608847 13.393242 6.082205-4.677825 12.16441-9.365976 18.246614-14.064453-32.44531-26.456042-69.031476-40.396579-111.18353-38.217725 1.951675 7.2181 3.913677 14.425875 5.855026 21.643975 35.863323-19.145005 104.037714-28.727833 96.169055-85.739468-8.405628-60.780743-66.955884-65.943905-116.563545-57.44534C602.654591 463.053431 608.92267 485.440901 623.575724 482.931605" p-id="4189" fill="#707070"></path><path d="M770.787798 491.678001c28.717507-12.75301 59.15951-15.293286 89.663471-7.817027 14.54979 3.572908 20.724932-18.835215 6.175142-22.418449-36.96824-9.066512-72.872868-5.235446-107.569316 10.161103C745.385041 477.685832 757.208682 497.698248 770.787798 491.678001" p-id="4190" fill="#707070"></path><path d="M777.696108 464.850211c-1.507643 33.013258-2.984308 66.047168-4.491951 99.070752-1.156548 25.70222-7.589848 55.503991 1.610907 80.029011 11.369283 30.287108 81.567633 6.226773 101.063732 2.354402 14.684033-2.92235 8.446933-25.30982-6.175142-22.408123-21.034722 4.182161-42.038465 7.693111-63.331345 10.388282-19.671647 2.49897-10.95623-47.976101-10.574156-56.195855 1.703843-37.742714 3.418013-75.495754 5.121857-113.228142C801.601548 449.856389 778.356993 449.918347 777.696108 464.850211" p-id="4191" fill="#707070"></path><path d="M801.002622 564.189448c-0.216853-0.289137-0.464685-0.5886-0.681537-0.877738-3.325076-4.223466-9.799681-3.954982-14.07478-1.817433-3.872371 1.931023-6.051226 4.894678-6.970269 9.097491-0.846759 3.82074-0.237505 8.612154 2.984308 11.296998 9.118144 7.631153 19.403163 4.378361 30.555593 3.294097 18.009109-1.755475 36.007892-3.500624 54.017001-5.256099 14.787296-1.445685 14.911212-24.690241 0-23.234229-24.111966 2.344076-50.382134 8.064859-74.556059 6.887658 2.746802 1.125569 5.483278 2.271791 8.219754 3.387034-0.609253-0.50599-1.20818-1.01198-1.817433-1.507643 0.991327 3.769108 1.992981 7.52789 2.984308 11.307325 0.11359-0.50599 0.216853-1.001653 0.330442-1.507643-1.786454 2.323423-3.562582 4.626193-5.349036 6.949616 0.433706-0.216853 0.867411-0.433706 1.301117-0.650558-4.688151-0.609253-9.376302-1.20818-14.07478-1.817433 0.227179 0.289137 0.475011 0.5886 0.691864 0.877738C793.846479 592.380312 810.162071 575.827215 801.002622 564.189448" p-id="4192" fill="#707070"></path></svg>