<?xml version="1.0" standalone="no"?><!DOCTYPE svg PUBLIC "-//W3C//DTD SVG 1.1//EN" "http://www.w3.org/Graphics/SVG/1.1/DTD/svg11.dtd"><svg t="1495887543148" class="icon" style="" viewBox="0 0 1024 1024" version="1.1" xmlns="http://www.w3.org/2000/svg" p-id="19095" xmlns:xlink="http://www.w3.org/1999/xlink" width="200" height="200"><defs><style type="text/css"></style></defs><path d="M697.344 806.4H378.88v-49.152h338.944l94.72 94.72v-94.72H957.44v-493.056h-72.192v-49.152h60.928c33.28 0 60.928 27.136 60.928 60.928v470.016c0 33.28-27.136 60.928-60.928 60.928h-83.968v164.352l-164.864-164.864z m-535.552-108.544h-83.968c-33.792 0-60.928-27.136-60.928-60.928v-470.016c0-33.28 27.136-60.928 60.928-60.928h687.104c33.792 0 60.928 27.136 60.928 60.928v470.016c0 33.28-27.136 60.928-60.928 60.928h-438.784l-164.352 164.352v-164.352z m49.664 45.568l94.72-94.72h470.528v-493.056H66.56v493.056h144.896v94.72z" p-id="19096" fill="#707070"></path></svg>