<?xml version="1.0" standalone="no"?><!DOCTYPE svg PUBLIC "-//W3C//DTD SVG 1.1//EN" "http://www.w3.org/Graphics/SVG/1.1/DTD/svg11.dtd"><svg t="1496907542615" class="icon" style="" viewBox="0 0 1024 1024" version="1.1" xmlns="http://www.w3.org/2000/svg" p-id="2416" xmlns:xlink="http://www.w3.org/1999/xlink" width="128" height="128"><defs><style type="text/css"></style></defs><path d="M516.06528 977.7408c-12.1408 0-23.4752-5.6704-32.02048-16l-97.5744-104.92544L221.76512 856.81536C115.71456 856.81536 29.44 770.5408 29.44 664.49024L29.44 237.12512C29.44 131.07584 115.71456 44.8 221.76512 44.8l582.63552 0c106.04416 0 192.32 86.27584 192.32 192.32512l0 427.36512c0 106.05056-86.27584 192.32512-192.32 192.32512l-156.1856 0-98.34496 105.50528C547.4048 964.95104 534.46016 977.7408 516.06528 977.7408L516.06528 977.7408zM221.76512 90.98496c-80.58496 0-146.14016 65.56032-146.14016 146.14016l0 427.36512c0 80.57984 65.5552 146.14016 146.14016 146.14016l184.82432 0 110.64064 118.97472 110.89536-118.97472 176.2752 0c80.57472 0 146.13376-65.56032 146.13376-146.14016L950.5344 237.12512c0-80.58496-65.55904-146.14016-146.13376-146.14016L221.76512 90.98496 221.76512 90.98496zM221.76512 90.98496" p-id="2417" fill="#707070"></path><path d="M227.1552 450.81088c0 15.87968 6.5344 31.66464 17.76512 42.89408 11.23456 11.23072 27.0144 17.77024 42.8992 17.77024 15.88096 0 31.66592-6.53952 42.89536-17.77024 11.23072-11.22944 17.77024-27.0144 17.77024-42.89408 0-15.8848-6.53952-31.66976-17.77024-42.90048-11.22944-11.22944-27.0144-17.77024-42.89536-17.77024-15.8848 0-31.66464 6.5408-42.8992 17.77024C233.6896 419.14112 227.1552 434.92608 227.1552 450.81088L227.1552 450.81088zM227.1552 450.81088" p-id="2418" fill="#707070"></path><path d="M450.8352 450.81088c0 15.87968 6.53952 31.66464 17.77024 42.89408 11.22944 11.23072 27.0144 17.77024 42.89408 17.77024 15.88096 0 31.66592-6.53952 42.89536-17.77024 11.23072-11.22944 17.77024-27.0144 17.77024-42.89408 0-15.8848-6.53952-31.66976-17.77024-42.90048-11.22944-11.22944-27.0144-17.77024-42.89536-17.77024-15.87968 0-31.66464 6.5408-42.89408 17.77024C457.37472 419.14112 450.8352 434.92608 450.8352 450.81088L450.8352 450.81088zM450.8352 450.81088" p-id="2419" fill="#707070"></path><path d="M682.92992 450.81088c0 15.87968 6.53952 31.66464 17.77024 42.89408 11.22944 11.23072 27.0144 17.77024 42.89536 17.77024 15.87968 0 31.66464-6.53952 42.89408-17.77024 11.23072-11.22944 17.77024-27.0144 17.77024-42.89408 0-15.8848-6.53952-31.66976-17.77024-42.90048-11.22944-11.22944-27.0144-17.77024-42.89408-17.77024-15.88096 0-31.66592 6.5408-42.89536 17.77024C689.46944 419.14112 682.92992 434.92608 682.92992 450.81088L682.92992 450.81088zM682.92992 450.81088" p-id="2420" fill="#707070"></path></svg>