<?xml version="1.0" standalone="no"?><!DOCTYPE svg PUBLIC "-//W3C//DTD SVG 1.1//EN" "http://www.w3.org/Graphics/SVG/1.1/DTD/svg11.dtd"><svg t="1495887417757" class="icon" style="" viewBox="0 0 1040 1024" version="1.1" xmlns="http://www.w3.org/2000/svg" p-id="17064" xmlns:xlink="http://www.w3.org/1999/xlink" width="203.125" height="200"><defs><style type="text/css"></style></defs><path d="M764.89697 629.39798c-31.159596-31.159596-67.620202-55.725253-108.088889-72.791919-9.69697-4.137374-19.652525-7.757576-29.608081-10.860606 18.618182-9.955556 35.943434-22.755556 51.329293-38.141415 41.115152-41.115152 63.741414-95.806061 63.741414-153.987878s-22.626263-112.872727-63.741414-153.987879C637.414141 158.383838 582.723232 135.757576 524.541414 135.757576s-112.872727 22.626263-153.987879 63.741414c-41.115152 41.115152-63.741414 95.806061-63.741414 153.987879s22.626263 112.872727 63.741414 153.987878c15.385859 15.385859 32.711111 28.185859 51.329293 38.141415-9.955556 3.232323-19.911111 6.723232-29.608081 10.860606-40.468687 17.066667-76.8 41.632323-108.088888 72.791919-31.159596 31.159596-55.725253 67.620202-72.79192 108.088889-17.713131 41.890909-26.763636 86.367677-26.763636 132.266666 0 11.248485 9.050505 20.29899 20.29899 20.29899s20.29899-9.050505 20.29899-20.29899c0-160.452525 126.965657-291.814141 285.737374-298.925252 4.525253 0.258586 9.050505 0.517172 13.575757 0.517172s9.050505-0.129293 13.575758-0.517172c158.771717 7.111111 285.737374 138.472727 285.737373 298.925252 0 11.248485 9.050505 20.29899 20.29899 20.29899s20.29899-9.050505 20.29899-20.29899c0-45.89899-8.921212-90.375758-26.763636-132.266666-17.066667-40.468687-41.632323-76.8-72.791919-107.959596zM347.410101 353.486869c0-97.616162 79.515152-177.131313 177.131313-177.131313s177.131313 79.515152 177.131313 177.131313c0 93.478788-72.791919 170.149495-164.589899 176.614141-4.137374-0.129293-8.40404-0.258586-12.541414-0.258586-4.137374 0-8.40404 0.129293-12.541414 0.258586-91.79798-6.464646-164.589899-83.135354-164.589899-176.614141z" fill="#707070" p-id="17065"></path><path d="M101.107071 799.547475H41.373737c9.955556-127.094949 112.484848-227.943434 241.777778-234.020202 4.137374 0.258586 8.145455 0.387879 12.153536 0.387879 4.266667 0 8.791919-0.129293 13.317171-0.517172 0.387879 0 0.775758-0.129293 1.163637-0.258586 0.775758-0.129293 1.422222-0.258586 2.197979-0.387879 0.646465-0.129293 1.163636-0.387879 1.810101-0.517172l1.939394-0.775757c0.517172-0.258586 1.163636-0.517172 1.680808-0.905051 0.517172-0.387879 1.163636-0.646465 1.680808-1.034343 0.517172-0.387879 1.034343-0.775758 1.422223-1.163636 0.517172-0.387879 1.034343-0.905051 1.422222-1.29293 0.387879-0.517172 0.775758-0.905051 1.163636-1.422222 0.387879-0.517172 0.775758-1.034343 1.163637-1.680808 0.387879-0.517172 0.646465-1.034343 0.90505-1.551515 0.258586-0.646465 0.646465-1.163636 0.775758-1.810101 0.258586-0.646465 0.517172-1.163636 0.646464-1.810101 0.129293-0.646465 0.387879-1.292929 0.387879-1.939394 0.129293-0.646465 0.258586-1.292929 0.258586-2.068687 0-0.258586 0.129293-0.646465 0.129293-0.905051v-1.163636-1.163636c0-0.258586-0.129293-0.646465-0.129293-0.905051-0.129293-0.775758-0.258586-1.422222-0.387879-2.068687-0.129293-0.646465-0.258586-1.292929-0.517171-1.810101l-0.775758-1.939394c-0.258586-0.646465-0.517172-1.163636-0.905051-1.680808-0.258586-0.517172-0.646465-1.163636-1.034343-1.680808l-1.163636-1.551515c-0.387879-0.517172-0.905051-0.905051-1.29293-1.422222-0.517172-0.387879-0.905051-0.905051-1.422222-1.292929l-1.551515-1.163637c-0.517172-0.387879-1.034343-0.646465-1.680808-1.034343-0.517172-0.258586-1.163636-0.517172-1.810101-0.775758-0.646465-0.258586-1.292929-0.517172-1.939394-0.646464-0.646465-0.129293-1.163636-0.258586-1.810101-0.387879-0.646465-0.129293-1.422222-0.258586-2.19798-0.258586-0.258586 0-0.517172-0.129293-0.90505-0.129293-4.525253-0.258586-8.791919-0.258586-12.8-0.258586-3.620202 0-7.49899 0.129293-11.507071 0.258586-77.446465-5.947475-137.955556-71.240404-137.955556-149.074747 0-79.127273 61.80202-144.808081 140.8-149.333334 11.248485-0.646465 19.781818-10.214141 19.135354-21.462626-0.646465-11.248485-10.214141-19.781818-21.462626-19.135354-100.460606 5.818182-179.070707 89.212121-179.070707 189.802021 0 48.484848 18.230303 94.642424 51.329293 130.068686 12.929293 13.705051 27.539394 25.341414 43.571717 34.521213-44.218182 14.99798-84.557576 40.468687-117.656566 74.989899-53.010101 55.466667-82.230303 128.129293-82.230303 204.670707 0 11.248485 9.050505 20.29899 20.29899 20.29899h80.808081c11.248485 0 20.29899-9.050505 20.29899-20.29899 0-11.119192-9.050505-20.29899-20.29899-20.29899zM959.094949 615.434343c-33.228283-34.521212-73.438384-59.991919-117.656565-74.989899 15.90303-9.309091 30.642424-20.816162 43.571717-34.521212 33.09899-35.29697 51.329293-81.583838 51.329293-130.068687 0-100.719192-78.739394-184.113131-179.2-189.80202-11.248485-0.646465-20.816162 7.886869-21.462626 19.135354-0.646465 11.248485 7.886869 20.816162 19.135353 21.462626 78.99798 4.525253 140.8 70.076768 140.8 149.333333 0 77.834343-60.509091 143.127273-137.955555 149.074748-4.137374-0.129293-7.886869-0.258586-11.636364-0.258586-4.008081 0-8.145455 0.129293-12.8 0.258586-0.258586 0-0.646465 0.129293-0.90505 0.129293-0.775758 0-1.422222 0.129293-2.068687 0.258586l-1.939394 0.387878c-0.646465 0.129293-1.292929 0.387879-1.939394 0.646465s-1.163636 0.517172-1.810101 0.775758c-0.517172 0.258586-1.034343 0.646465-1.551515 1.034343-0.517172 0.387879-1.163636 0.775758-1.680808 1.163636-0.517172 0.387879-0.905051 0.775758-1.422223 1.29293l-1.422222 1.422222-1.163636 1.551515c-0.387879 0.517172-0.775758 1.163636-1.034344 1.680808-0.258586 0.517172-0.517172 1.163636-0.775757 1.680808l-0.775758 1.939394c-0.129293 0.646465-0.387879 1.163636-0.517172 1.810101-0.129293 0.646465-0.258586 1.422222-0.387878 2.068687 0 0.258586-0.129293 0.646465-0.129293 0.905051v1.163636c0 0.387879-0.129293 0.775758-0.129293 1.163636 0 0.258586 0.129293 0.646465 0.129293 0.905051 0 0.646465 0.129293 1.422222 0.258586 2.068687l0.387878 1.939394c0.129293 0.646465 0.387879 1.292929 0.646465 1.810101 0.258586 0.646465 0.517172 1.163636 0.775758 1.810101 0.258586 0.517172 0.646465 1.034343 0.90505 1.551515 0.387879 0.517172 0.775758 1.163636 1.163636 1.680808 0.387879 0.517172 0.775758 0.905051 1.163637 1.422222 0.517172 0.517172 0.905051 0.905051 1.422222 1.292929 0.517172 0.387879 0.905051 0.775758 1.422222 1.163637 0.517172 0.387879 1.034343 0.775758 1.680808 1.034343 0.517172 0.258586 1.034343 0.646465 1.680808 0.905051l1.939394 0.775757c0.646465 0.258586 1.163636 0.387879 1.810101 0.517172 0.646465 0.129293 1.422222 0.258586 2.19798 0.387879 0.387879 0 0.775758 0.129293 1.163637 0.258586 4.525253 0.258586 8.921212 0.517172 13.317171 0.517171 3.878788 0 8.016162-0.129293 12.153536-0.387878 129.292929 6.076768 231.822222 106.925253 241.777777 234.020202h-59.733333c-11.248485 0-20.29899 9.050505-20.29899 20.29899s9.050505 20.29899 20.29899 20.298989h80.808081c11.248485 0 20.29899-9.050505 20.29899-20.298989 0.387879-76.8-28.832323-149.462626-81.842425-204.670708z" fill="#707070" p-id="17066"></path></svg>