<?xml version="1.0" standalone="no"?><!DOCTYPE svg PUBLIC "-//W3C//DTD SVG 1.1//EN" "http://www.w3.org/Graphics/SVG/1.1/DTD/svg11.dtd"><svg t="1495887713574" class="icon" style="" viewBox="0 0 1024 1024" version="1.1" xmlns="http://www.w3.org/2000/svg" p-id="21301" xmlns:xlink="http://www.w3.org/1999/xlink" width="200" height="200"><defs><style type="text/css"></style></defs><path d="M524.7488 1009.408c-66.5088 0-161.8944-50.3808-243.0464-128.3584-89.7536-86.272-141.2608-184.6784-141.2608-270.0288L140.4416 225.4592l26.9056-0.4352c0.9472 0 91.1872-1.8432 184.5248-39.5264 94.2336-38.0928 156.2112-82.5344 156.8256-82.9696l16.0256-11.5968 16.2304 11.6992c0.6912 0.512 61.312 44.3136 156.672 82.8672 93.7472 37.8368 184.0384 39.5008 184.96 39.5008l26.3936 0.4352 0.1792 385.5872c0 85.3248-51.5072 183.7568-141.312 270.0032C686.6688 959.0272 591.2576 1009.408 524.7488 1009.408zM195.0464 611.0208c0 160.4864 234.0352 344.192 329.7024 344.192 95.6672 0 329.728-183.7312 329.728-344.192l0-333.312L843.0592 276.48c-40.4224-4.352-102.0416-14.976-165.9648-40.7808-65.2288-26.3936-115.0976-54.8608-145.4848-74.0864l-6.8608-4.352-6.8608 4.352c-24.6784 15.6672-76.3904 46.1312-145.408 74.0864-63.9744 25.8048-125.5936 36.4032-165.9904 40.7808l-11.4176 1.2288L195.072 611.0208zM352.9728 616.2432l35.2256-41.216 108.0832 91.4944 205.2096-235.1872 41.2416 35.584-240.5632 275.7632L352.9728 616.2432z" p-id="21302" fill="#707070"></path><path d="M524.7488 996.5824c-129.152 0-371.4816-204.2624-371.4816-385.5872L153.2672 238.0544l14.3104-0.2304c0.64 0 93.2864-1.7664 189.1072-40.448 96.0768-38.8352 158.9248-84.0448 159.5392-84.48l8.5248-6.1696 8.7552 6.2976c0.1792 0.128 62.08 45.0304 159.36 84.352 95.9232 38.7072 188.7232 40.448 189.6192 40.448l13.7216 0.2304 0.1792 372.9664C896.3584 792.3456 653.9264 996.5824 524.7488 996.5824zM511.0272 150.8352c-24.2944 15.4368-75.2128 45.4144-143.3344 73.0112-62.6176 25.2416-122.9824 35.6352-162.5856 39.9104l-22.8608 2.4576 0 344.8064c0 170.2656 240.4096 356.992 342.5024 356.992 102.0928 0 342.528-186.7264 342.528-356.992L867.2768 266.2144l-22.8608-2.4576c-39.6288-4.2752-99.9936-14.6688-162.56-39.936-64.2816-26.0096-113.4848-54.0416-143.4368-73.0112l-13.7216-8.6784L511.0272 150.8352zM371.072 614.784l18.5856-21.7856 107.9808 91.4176 205.1328-235.1104 21.8624 18.8672L500.8128 724.736 371.072 614.784z" p-id="21303" fill="#707070"></path></svg>