<?xml version="1.0" standalone="no"?><!DOCTYPE svg PUBLIC "-//W3C//DTD SVG 1.1//EN" "http://www.w3.org/Graphics/SVG/1.1/DTD/svg11.dtd"><svg t="1493002162977" class="icon" style="" viewBox="0 0 1024 1024" version="1.1" xmlns="http://www.w3.org/2000/svg" p-id="4520" xmlns:xlink="http://www.w3.org/1999/xlink" width="150" height="150"><defs><style type="text/css"></style></defs><path d="M369.777778 506.311111c-11.377778 0-22.755556-11.377778-22.755556-22.755555 0-17.066667 11.377778-28.444444 22.755556-28.444445h278.755555c11.377778 0 22.755556 11.377778 22.755556 22.755556s-11.377778 22.755556-22.755556 22.755555H369.777778z" p-id="4521" fill="#707070"></path><path d="M233.244444 950.044444c-5.688889 0-11.377778 0-17.066666-5.688888-5.688889-5.688889-5.688889-11.377778-5.688889-17.066667 0-11.377778 11.377778-22.755556 22.755555-22.755556h238.933334c5.688889 0 11.377778-5.688889 11.377778-11.377777v-85.333334c0-11.377778-5.688889-17.066667-17.066667-17.066666H102.4c-51.2 0-96.711111-39.822222-96.711111-85.333334V147.911111C11.377778 96.711111 51.2 56.888889 102.4 56.888889h819.2c51.2 0 91.022222 39.822222 91.022222 91.022222v551.822222c0 45.511111-39.822222 85.333333-96.711111 85.333334H551.822222c-11.377778 0-17.066667 5.688889-17.066666 17.066666v85.333334c0 5.688889 5.688889 11.377778 11.377777 11.377777h238.933334c11.377778 0 22.755556 11.377778 22.755555 22.755556 0 5.688889 0 11.377778-5.688889 17.066667-5.688889 5.688889-11.377778 5.688889-17.066666 5.688889H233.244444zM125.155556 102.4C85.333333 102.4 51.2 130.844444 51.2 170.666667v506.311111c0 39.822222 34.133333 68.266667 73.955556 68.266666h773.688888c39.822222 0 73.955556-34.133333 73.955556-68.266666V170.666667c0-39.822222-34.133333-68.266667-73.955556-68.266667H125.155556z" p-id="4522" fill="#707070"></path><path d="M301.511111 324.266667c-11.377778 0-22.755556-11.377778-22.755555-22.755556s11.377778-22.755556 22.755555-22.755555h415.288889c11.377778 0 22.755556 5.688889 22.755556 22.755555 0 11.377778-11.377778 22.755556-22.755556 22.755556H301.511111z" p-id="4523" fill="#707070"></path></svg>