<?xml version="1.0" standalone="no"?><!DOCTYPE svg PUBLIC "-//W3C//DTD SVG 1.1//EN" "http://www.w3.org/Graphics/SVG/1.1/DTD/svg11.dtd"><svg t="1495888662942" class="icon" style="" viewBox="0 0 1024 1024" version="1.1" xmlns="http://www.w3.org/2000/svg" p-id="35988" xmlns:xlink="http://www.w3.org/1999/xlink" width="200" height="200"><defs><style type="text/css"></style></defs><path d="M832 512c102.4-102.4 153.6-198.4 121.6-256-32-57.6-140.8-64-281.6-25.6C640 96 582.4 0 512 0 441.6 0 384 96 352 230.4 211.2 192 102.4 198.4 70.4 256S83.2 409.6 192 512c-102.4 102.4-153.6 198.4-121.6 256 32 57.6 140.8 64 281.6 25.6C384 928 441.6 1024 512 1024c70.4 0 128-96 160-230.4 140.8 38.4 249.6 38.4 281.6-25.6S940.8 614.4 832 512zM915.2 281.6c25.6 44.8-19.2 121.6-108.8 204.8-32-25.6-64-57.6-102.4-83.2-6.4-44.8-12.8-89.6-19.2-134.4C800 236.8 889.6 236.8 915.2 281.6zM704 454.4c25.6 19.2 51.2 38.4 70.4 57.6-19.2 19.2-44.8 38.4-70.4 57.6 0-19.2 0-38.4 0-57.6C704 492.8 704 473.6 704 454.4zM659.2 512c0 32 0 57.6 0 83.2C633.6 614.4 614.4 627.2 588.8 640c-25.6 12.8-51.2 25.6-76.8 38.4-25.6-12.8-51.2-25.6-76.8-38.4C409.6 627.2 390.4 614.4 364.8 595.2c0-25.6 0-57.6 0-83.2 0-32 0-57.6 0-83.2C390.4 409.6 409.6 396.8 435.2 384 460.8 364.8 486.4 352 512 339.2 537.6 352 563.2 364.8 588.8 384c25.6 12.8 51.2 32 70.4 44.8C659.2 454.4 659.2 480 659.2 512zM640 736c-25.6-12.8-57.6-19.2-83.2-32 19.2-6.4 32-19.2 51.2-25.6 19.2-6.4 32-19.2 44.8-32C652.8 678.4 646.4 710.4 640 736zM320 569.6C294.4 550.4 275.2 531.2 249.6 512 275.2 492.8 294.4 473.6 320 454.4 320 473.6 320 492.8 320 512 320 531.2 320 550.4 320 569.6zM384 288C409.6 294.4 435.2 307.2 467.2 320 448 326.4 435.2 339.2 416 345.6 396.8 352 384 364.8 371.2 377.6 371.2 345.6 377.6 313.6 384 288zM652.8 371.2C640 364.8 627.2 352 608 345.6 595.2 339.2 576 326.4 563.2 320 588.8 307.2 614.4 294.4 640 288 646.4 313.6 652.8 345.6 652.8 371.2zM512 51.2c51.2 0 96 76.8 121.6 198.4C595.2 256 556.8 275.2 512 294.4 467.2 275.2 428.8 256 390.4 243.2 416 128 460.8 51.2 512 51.2zM108.8 281.6c25.6-44.8 115.2-44.8 230.4-6.4C332.8 313.6 326.4 358.4 326.4 403.2 288 428.8 249.6 454.4 217.6 486.4 128 403.2 83.2 326.4 108.8 281.6zM108.8 742.4C83.2 697.6 128 620.8 217.6 537.6c32 25.6 64 57.6 102.4 83.2 6.4 44.8 12.8 89.6 19.2 134.4C224 787.2 134.4 787.2 108.8 742.4zM371.2 652.8c12.8 12.8 32 19.2 44.8 25.6C435.2 684.8 448 697.6 460.8 704c-25.6 12.8-57.6 25.6-83.2 32C377.6 710.4 371.2 678.4 371.2 652.8zM512 972.8c-51.2 0-96-76.8-121.6-198.4C428.8 768 467.2 748.8 512 729.6c44.8 19.2 83.2 38.4 121.6 51.2C608 896 563.2 972.8 512 972.8zM915.2 742.4c-25.6 44.8-115.2 44.8-230.4 6.4 6.4-38.4 12.8-83.2 19.2-134.4 38.4-25.6 70.4-51.2 102.4-83.2C896 620.8 940.8 697.6 915.2 742.4z" p-id="35989" fill="#707070"></path><path d="M601.6 537.6 422.4 537.6C409.6 537.6 403.2 524.8 403.2 512l0 0c0-12.8 12.8-19.2 19.2-19.2l179.2 0c12.8 0 19.2 12.8 19.2 19.2l0 0C620.8 524.8 614.4 537.6 601.6 537.6z" p-id="35990" fill="#707070"></path><path d="M512 627.2 512 627.2c-12.8 0-19.2-12.8-19.2-19.2L492.8 422.4c0-12.8 12.8-19.2 19.2-19.2l0 0c12.8 0 25.6 12.8 25.6 19.2l0 179.2C537.6 614.4 524.8 627.2 512 627.2z" p-id="35991" fill="#707070"></path></svg>