<?xml version="1.0" standalone="no"?><!DOCTYPE svg PUBLIC "-//W3C//DTD SVG 1.1//EN" "http://www.w3.org/Graphics/SVG/1.1/DTD/svg11.dtd"><svg t="1493002177736" class="icon" style="" viewBox="0 0 1024 1024" version="1.1" xmlns="http://www.w3.org/2000/svg" p-id="4682" xmlns:xlink="http://www.w3.org/1999/xlink" width="150" height="150"><defs><style type="text/css"></style></defs><path d="M384.198348 825.135527c-8.514075 0-15.446965 6.93289-15.446966 15.446965s6.93289 15.446965 15.446966 15.446965c8.514075 0 15.446965-6.93289 15.446965-15.446965s-7.05452-15.446965-15.446965-15.446965z" fill="#707070" p-id="4683"></path><path d="M677.082538 205.797363v-57.287564c0-32.840005-29.920893-59.841786-67.261195-59.841786H131.087052C94.233269 88.789642 63.825857 115.669795 63.825857 148.509799v738.778478c0 32.840005 29.920893 59.841786 67.261195 59.841786h479.22081c36.853783 0 67.261195-26.880152 67.261195-59.841786l-0.486519-681.490914z m-545.995486-77.721344h479.22081c11.433187 0 20.920299 9.487112 20.920299 20.43378V182.444471H110.166752v-33.934672c0-11.433187 9.487112-20.433781 20.9203-20.43378z m253.111296 774.172704c-34.42119 0-62.274379-27.853189-62.27438-61.787861 0-34.42119 27.853189-61.787861 62.27438-61.78786 34.42119 0 61.787861 27.853189 61.78786 61.78786 0 34.42119-27.4883 61.787861-61.78786 61.787861zM110.166752 720.898919V228.785366h520.57489v492.235183h-520.57489v-0.12163zM813.551002 377.660055c-6.446371 3.040741-14.473928 3.040741-20.920299 0-12.406224-5.473334-16.906521-19.460744-10.46015-30.893931 14.473928-25.907115 16.906521-55.341489 5.959853-80.762086-10.46015-25.420596-33.326523-44.394821-61.787861-52.300748-13.014372-3.52726-19.947262-16.420002-14.960446-28.947856 4.986816-12.406224 19.460744-19.947262 32.353486-16.420002 42.327117 11.433187 76.261789 39.894524 92.195272 77.721344 15.933484 37.82682 12.406224 81.248604-9.000594 120.048462-2.797482 5.108445-7.784297 9.608742-13.379261 11.554817z" fill="#707070" p-id="4684"></path><path d="M917.78761 399.066873c-6.446371 3.040741-14.473928 3.040741-20.920299 0-12.406224-5.473334-16.906521-19.460744-10.46015-31.380449 26.393633-47.800451 30.89393-101.682385 10.946668-148.023281-19.460744-46.340896-60.814824-81.248604-113.60209-95.600903-12.892743-3.52726-19.947262-16.420002-14.960447-29.434374 4.986816-12.406224 19.460744-19.947262 32.353486-15.933484 66.774676 18.487706 119.075425 62.274379 143.522984 121.021499 24.934078 58.74712 19.460744 126.981352-13.987409 187.309656-2.432593 6.081482-7.419408 10.095261-12.892743 12.041336zM524.194072 413.540801c6.446371-22.866374 9.000594-68.234232-32.353487-73.707567-33.326523-4.500297-72.734529 17.39304-93.168309 31.380449-6.93289-0.973037-13.987409-1.459556-21.406818-1.459555-54.246823-0.973037-89.64105 17.39304-119.075425 56.314526-10.946668 14.473928-20.433781 38.313339-23.96104 65.801639 15.446965-25.907115 61.301342-73.221048 110.07483-92.195272 0 0-73.707566 52.787267-110.07483 128.076018v0.973037l-4.500297 10.46015c-35.880746 88.668013-6.446371 126.494833 20.43378 134.035871 24.934078 6.446371 59.841786-5.473334 87.694976-35.394227 47.313933 10.946668 94.141347-1.459556 112.142535-10.946668 33.326523-18.487706 56.314527-50.841193 61.301342-83.681197h-91.222236s-4.013778 29.434375-52.787266 29.434374c-44.88134 0-46.827414-52.300748-46.827415-52.300748h193.756028s3.52726-56.314527-23.96104-93.654829c-15.446965-20.920299-36.367265-38.799857-65.801639-48.773488 9.000594-6.446371 24.447559-16.906521 37.340301-20.433781 24.934078-6.446371 41.840599-2.432593 52.300749 15.446965 14.473928 24.447559-8.027557 81.735123-8.027557 81.735123s11.068298-17.14978 18.122818-41.11082zM323.870043 633.812092c-38.313339 31.380449-70.301936 27.853189-82.221642 9.000594-10.46015-16.420002-12.406224-45.854377 0-86.23542 5.959853 15.446965 14.960447 30.407412 28.339708 43.786673 17.028151 16.420002 35.515857 26.880152 53.881934 33.448153z m-0.973038-162.497209s1.946074-36.853783 41.840599-40.381043c34.907709-3.040741 53.273785 12.406224 58.74712 42.327117l-100.587719-1.946074z" fill="#707070" p-id="4685"></path></svg>